<?xml version="1.0" encoding="UTF-8" standalone="no"?>
<svg width="344px" height="100px" viewBox="0 0 344 100" version="1.1" xmlns="http://www.w3.org/2000/svg" xmlns:xlink="http://www.w3.org/1999/xlink">
    <!-- Generator: Sketch 3.7.2 (28276) - http://www.bohemiancoding.com/sketch -->
    <title>logo-principal-bib</title>
    <desc>Created with Sketch.</desc>
    <defs>
        <polygon id="path-1" points="0 0.474047657 0 18.8503897 14.5664832 18.8503897 14.5664832 0.474047657 3.73399647e-20 0.474047657"></polygon>
    </defs>
    <g id="Page-1" stroke="none" stroke-width="1" fill="none" fill-rule="evenodd">
        <g id="PARTNERS" transform="translate(-53.000000, -34.000000)">
            <g id="logo-principal-bib" transform="translate(53.000000, 34.000000)">
                <polygon id="Fill-27" fill="#6EC2BC" points="93.7270264 75.1082436 50.0339789 99.8309606 6.56993202 74.7215007 6.7954144 24.8883735 50.4839842 0.162172257 93.9512294 25.2741661"></polygon>
                <polygon id="Fill-28" fill="#56B156" points="101.184992 50.0472136 75.9827787 93.1805995 25.6605494 93.1308709 0.542452267 49.9496569 25.7465845 6.81405379 76.0675345 6.86378239"></polygon>
                <path d="M34.744035,67.2150158 L18.4949113,67.2137488 L18.464847,55.6219166 L28.4455606,55.6219166 C33.513317,55.6219166 37.9372492,52.8485176 40.2576388,48.7552519 C43.0379484,50.5480155 44.8814667,53.6514603 44.8814667,57.1752227 C44.8814667,62.710618 40.3337591,67.2150158 34.744035,67.2150158 L34.744035,67.2150158 Z M37.1165573,47.4138466 C35.3370056,50.3142594 32.1159659,52.2555753 28.4455606,52.2555753 L18.4945915,52.2555753 L18.4808387,47.1335293 L34.7437151,47.1335293 C35.5612087,47.1335293 36.3550346,47.232353 37.1165573,47.4138466 L37.1165573,47.4138466 Z M18.4408595,32.1772563 L28.4455606,32.1772563 C34.0362442,32.1772563 38.5845915,36.6803871 38.5845915,42.2151488 C38.5845915,42.9157836 38.5110299,43.5993144 38.372862,44.2600396 C37.2166651,43.9410797 36.0009793,43.7668712 34.7437151,43.7668712 L18.4718833,43.7668712 L18.4408595,32.1772563 Z M41.5484854,45.5909924 C41.8321774,44.5121668 41.9840982,43.3810787 41.9840982,42.2151488 C41.9840982,34.8236414 35.9104665,28.8102815 28.4455606,28.8102815 L15.0323976,28.8102815 L15.10436,70.5797733 L34.7437151,70.5816738 C42.2083012,70.5816738 48.2809734,64.5673636 48.2809734,57.1752227 C48.2809734,52.2378377 45.571027,47.9184177 41.5484854,45.5909924 L41.5484854,45.5909924 Z" id="Fill-29" fill="#FFFFFF"></path>
                <path d="M76.4716437,67.2150158 L60.2244391,67.2137488 L60.1934152,55.6219166 L70.1760478,55.6219166 C75.2434843,55.6219166 79.6667769,52.8491511 81.9868467,48.7562021 C84.7668365,50.548649 86.6093953,53.6520938 86.6093953,57.1752227 C86.6093953,62.710618 82.0620074,67.2150158 76.4716437,67.2150158 L76.4716437,67.2150158 Z M78.846085,47.4141633 C77.0665333,50.3142594 73.8461333,52.2555753 70.1760478,52.2555753 L60.2237994,52.2555753 L60.2097267,47.1335293 L76.4716437,47.1335293 C77.2894571,47.1335293 78.0839226,47.232353 78.846085,47.4141633 L78.846085,47.4141633 Z M60.1687881,32.1772563 L70.1760478,32.1772563 C75.7664116,32.1772563 80.3141192,36.6803871 80.3141192,42.2151488 C80.3141192,42.9157836 80.2405576,43.5996311 80.1020699,44.2603564 C78.945873,43.9410797 77.7292276,43.7668712 76.4716437,43.7668712 L60.2007714,43.7668712 L60.1687881,32.1772563 Z M83.2776933,45.5919426 C83.5617051,44.5128003 83.7136259,43.3813954 83.7136259,42.2151488 C83.7136259,34.8236414 77.6406339,28.8102815 70.1760478,28.8102815 L56.7600063,28.8102815 L56.8338877,70.5797733 L76.4716437,70.5816738 C83.9359099,70.5816738 90.0089019,64.5673636 90.0089019,57.1752227 C90.0089019,52.2384712 87.2992754,47.9193679 83.2776933,45.5919426 L83.2776933,45.5919426 Z" id="Fill-30" fill="#FFFFFF"></path>
                <polygon id="Fill-31" fill="#FFFFFF" points="53.9443551 70.4176011 50.5448484 70.4176011 50.5448484 29.5752151 53.9443551 29.5752151"></polygon>
                <g id="Group-18" transform="translate(119.000000, 33.000000)">
                    <g id="Group-3" transform="translate(0.454471, 0.351885)">
                        <mask id="mask-2" fill="white">
                            <use xlink:href="#path-1"></use>
                        </mask>
                        <g id="Clip-2"></g>
                        <path d="M4.08775706,15.4229965 L7.75562117,15.4229965 C8.06902552,15.4229965 8.38862908,15.3895552 8.71236544,15.3192602 C9.03403541,15.2523776 9.32608693,15.1288495 9.58852003,14.9568656 C9.85095312,14.7835167 10.0644814,14.5576173 10.2297935,14.2825795 C10.3957945,14.0048119 10.4784506,13.6690338 10.4784506,13.2697855 C10.4784506,12.8370959 10.3709977,12.4863034 10.1526479,12.2187729 C9.93360921,11.9498774 9.6580889,11.7464996 9.32608693,11.609322 C8.99477376,11.470097 8.63728616,11.3745504 8.25362413,11.3226822 C7.8685845,11.270814 7.5104081,11.2441975 7.17840613,11.2441975 L4.08775706,11.2441975 L4.08775706,15.4229965 Z M4.08775706,7.81885169 L7.04822278,7.81885169 C7.36300473,7.81885169 7.67227628,7.78404543 7.97741502,7.71579785 C8.28393136,7.64482038 8.55807407,7.53357683 8.80397595,7.37660741 C9.04712262,7.22236789 9.24343084,7.01421278 9.39221181,6.754872 C9.54099277,6.49416626 9.61538326,6.18227484 9.61538326,5.82056269 C9.61538326,5.43974122 9.53272716,5.12239 9.36741498,4.87260387 C9.19934759,4.62350022 8.98581935,4.42899464 8.72407506,4.28772216 C8.46370837,4.14986205 8.16545763,4.05090307 7.83345566,3.98879778 C7.50145369,3.92873991 7.17840613,3.89871098 6.86500177,3.89871098 L4.08775706,3.89871098 L4.08775706,7.81885169 Z M-0.000275520309,0.474047657 L6.91597303,0.474047657 C7.71980353,0.474047657 8.52776684,0.529328193 9.33986295,0.641936692 C10.1526479,0.754545191 10.8820879,0.978397237 11.528183,1.31554026 C12.1729005,1.65404823 12.6984555,2.12563897 13.0993376,2.73099497 C13.5002196,3.33635096 13.7020382,4.14167234 13.7020382,5.14627665 C13.7020382,6.18227484 13.4086091,7.04492419 12.8251949,7.72876489 C12.2397142,8.41124064 11.4661909,8.89921081 10.5060027,9.19472281 L10.5060027,9.24659096 C11.1176577,9.33190043 11.6721424,9.50115442 12.1694565,9.75094054 C12.6674595,10.0027741 13.0958936,10.3228552 13.4533812,10.7145963 C13.8094912,11.102925 14.0857003,11.5554064 14.2792533,12.0761354 C14.4700511,12.5954995 14.5664832,13.1489873 14.5664832,13.7359165 C14.5664832,14.705032 14.3570878,15.5137658 13.9376081,16.1641652 C13.5188172,16.8118347 12.976731,17.3352936 12.3134159,17.7338594 C11.6501007,18.1331077 10.9027519,18.4183826 10.0741246,18.589684 C9.24343084,18.7637153 8.41893632,18.8503897 7.5985746,18.8503897 L-0.000275520309,18.8503897 L-0.000275520309,0.474047657 Z" id="Fill-1" fill="#55B157" mask="url(#mask-2)"></path>
                    </g>
                    <polygon id="Fill-4" fill="#55B157" points="17.376928 19.2025479 21.4642718 19.2025479 21.4642718 0.825523307 17.376928 0.825523307"></polygon>
                    <path d="M28.4343157,10.0125341 C28.4343157,10.8785959 28.5686318,11.6695853 28.8407081,12.3868673 C29.1093404,13.1068792 29.4998904,13.7292971 30.0054702,14.2575333 C30.5117388,14.7857695 31.1192611,15.1966199 31.8259707,15.489402 C32.533369,15.784914 33.3248011,15.9330113 34.1975117,15.9330113 C35.0709111,15.9330113 35.8602768,15.784914 36.568364,15.489402 C37.2757624,15.1966199 37.8825958,14.7857695 38.3881756,14.2575333 C38.8958218,13.7292971 39.2843054,13.1068792 39.5550041,12.3868673 C39.825014,11.6695853 39.9607078,10.8785959 39.9607078,10.0125341 C39.9607078,9.16626421 39.825014,8.37868719 39.5550041,7.65116804 C39.2843054,6.92364889 38.8958218,6.29645367 38.3881756,5.76958239 C37.8825958,5.24134616 37.2757624,4.83049576 36.568364,4.53566623 C35.8602768,4.24356661 35.0709111,4.09615185 34.1975117,4.09615185 C33.3248011,4.09615185 32.533369,4.24356661 31.8259707,4.53566623 C31.1192611,4.83049576 30.5117388,5.24134616 30.0054702,5.76958239 C29.4998904,6.29645367 29.1093404,6.92364889 28.8407081,7.65116804 C28.5686318,8.37868719 28.4343157,9.16626421 28.4343157,10.0125341 M24.1899253,10.0125341 C24.1899253,8.54384632 24.4385824,7.2102887 24.9365853,6.01663861 C25.4345883,4.82230605 26.1295883,3.80609966 27.0188301,2.96597201 C27.9094495,2.12720931 28.965381,1.4829522 30.1900688,1.03183573 C31.4113126,0.582766682 32.7475861,0.35823216 34.1975117,0.35823216 C35.6467485,0.35823216 36.9823332,0.582766682 38.207021,1.03183573 C39.4282648,1.4829522 40.4841964,2.12720931 41.3761934,2.96597201 C42.2668128,3.80609966 42.9611239,4.82230605 43.4577493,6.01663861 C43.9550634,7.2102887 44.2044093,8.54384632 44.2044093,10.0125341 C44.2044093,11.4846343 43.9550634,12.8161445 43.4577493,14.0104771 C42.9611239,15.2041272 42.2668128,16.221016 41.3761934,17.0597787 C40.4841964,17.8999064 39.4282648,18.5455285 38.207021,18.99528 C36.9823332,19.4436665 35.6467485,19.6688835 34.1975117,19.6688835 C32.7475861,19.6688835 31.4113126,19.4436665 30.1900688,18.99528 C28.965381,18.5455285 27.9094495,17.8999064 27.0188301,17.0597787 C26.1295883,16.221016 25.4345883,15.2041272 24.9365853,14.0104771 C24.4385824,12.8161445 24.1899253,11.4846343 24.1899253,10.0125341" id="Fill-6" fill="#55B157"></path>
                    <polygon id="Fill-7" fill="#1F1D19" points="46.9278587 19.2025479 51.0158913 19.2025479 51.0158913 0.825523307 46.9278587 0.825523307"></polygon>
                    <polygon id="Fill-8" fill="#1F1D19" points="54.7338312 0.82572805 60.2883206 0.82572805 68.1737119 13.5948494 68.2260607 13.5948494 68.2260607 0.82572805 72.3127157 0.82572805 72.3127157 19.2027526 66.9683105 19.2027526 58.8742127 6.12037493 58.8218638 6.12037493 58.8218638 19.2027526 54.7338312 19.2027526"></polygon>
                    <polygon id="Fill-9" fill="#1F1D19" points="76.2413598 0.82572805 88.6852345 0.82572805 88.6852345 4.56228279 80.3300812 4.56228279 80.3300812 8.30020248 88.0570482 8.30020248 88.0570482 12.0388046 80.3300812 12.0388046 80.3300812 19.2027526 76.2413598 19.2027526"></polygon>
                    <path d="M94.8685991,10.0125341 C94.8685991,10.8785959 95.0015376,11.6695853 95.2749915,12.3868673 C95.5436238,13.1068792 95.9327963,13.7292971 96.4390648,14.2575333 C96.9460222,14.7857695 97.5521669,15.1966199 98.2602541,15.489402 C98.9676525,15.784914 99.7590846,15.9330113 100.631795,15.9330113 C101.505195,15.9330113 102.293871,15.784914 103.00127,15.489402 C103.708668,15.1966199 104.316879,14.7857695 104.822459,14.2575333 C105.328728,13.7292971 105.718589,13.1068792 105.989288,12.3868673 C106.259297,11.6695853 106.394991,10.8785959 106.394991,10.0125341 C106.394991,9.16626421 106.259297,8.37868719 105.989288,7.65116804 C105.718589,6.92364889 105.328728,6.29645367 104.822459,5.76958239 C104.316879,5.24134616 103.708668,4.83049576 103.00127,4.53566623 C102.293871,4.24356661 101.505195,4.09615185 100.631795,4.09615185 C99.7590846,4.09615185 98.9676525,4.24356661 98.2602541,4.53566623 C97.5521669,4.83049576 96.9460222,5.24134616 96.4390648,5.76958239 C95.9327963,6.29645367 95.5436238,6.92364889 95.2749915,7.65116804 C95.0015376,8.37868719 94.8685991,9.16626421 94.8685991,10.0125341 M90.6242087,10.0125341 C90.6242087,8.54384632 90.872177,7.2102887 91.37018,6.01663861 C91.8674941,4.82230605 92.5624941,3.80609966 93.4531135,2.96597201 C94.3437329,2.12720931 95.3996645,1.4829522 96.6243522,1.03183573 C97.845596,0.582766682 99.1818695,0.35823216 100.631795,0.35823216 C102.081032,0.35823216 103.415928,0.582766682 104.639927,1.03183573 C105.861859,1.4829522 106.91848,2.12720931 107.810477,2.96597201 C108.700407,3.80609966 109.39403,4.82230605 109.892033,6.01663861 C110.389347,7.2102887 110.638693,8.54384632 110.638693,10.0125341 C110.638693,11.4846343 110.389347,12.8161445 109.892033,14.0104771 C109.39403,15.2041272 108.700407,16.221016 107.810477,17.0597787 C106.91848,17.8999064 105.861859,18.5455285 104.639927,18.99528 C103.415928,19.4436665 102.081032,19.6688835 100.631795,19.6688835 C99.1818695,19.6688835 97.845596,19.4436665 96.6243522,18.99528 C95.3996645,18.5455285 94.3437329,17.8999064 93.4531135,17.0597787 C92.5624941,16.221016 91.8674941,15.2041272 91.37018,14.0104771 C90.872177,12.8161445 90.6242087,11.4846343 90.6242087,10.0125341" id="Fill-10" fill="#1F1D19"></path>
                    <path d="M117.50149,8.42959988 L119.912293,8.42959988 C120.279424,8.42959988 120.667219,8.41595037 121.077744,8.39069876 C121.48758,8.36544716 121.858155,8.28696245 122.190157,8.15797453 C122.522159,8.02693919 122.797679,7.82424389 123.016029,7.54715873 C123.234379,7.27075605 123.342521,6.8810624 123.342521,6.3801252 C123.342521,5.91262931 123.248844,5.53999755 123.055291,5.26291239 C122.862427,4.98650972 122.61928,4.77425976 122.321718,4.62752747 C122.024156,4.48216013 121.683889,4.38047125 121.299538,4.32860309 C120.915876,4.27673493 120.539791,4.25080086 120.174726,4.25080086 L117.50149,4.25080086 L117.50149,8.42959988 Z M113.414147,0.825455059 L120.592139,0.825455059 C121.534419,0.825455059 122.430549,0.916224334 123.279151,1.09776288 C124.12431,1.27793648 124.868215,1.58232067 125.504667,2.00613811 C126.142496,2.4285906 126.648076,3.00118775 127.024161,3.71915224 C127.400246,4.43779921 127.5876,5.33388987 127.5876,6.4053768 C127.5876,7.70344568 127.248021,8.80496154 126.566109,9.71470172 C125.885573,10.6230769 124.890256,11.2004514 123.579468,11.4413654 L128.295687,19.2024796 L123.395559,19.2024796 L119.519677,11.8569931 L117.50149,11.8569931 L117.50149,19.2024796 L113.414147,19.2024796 L113.414147,0.825455059 Z" id="Fill-11" fill="#1F1D19"></path>
                    <polygon id="Fill-12" fill="#1F1D19" points="130.388953 0.82572805 136.573006 0.82572805 140.842882 12.8161445 140.895231 12.8161445 145.190593 0.82572805 151.347094 0.82572805 151.347094 19.2027526 147.261128 19.2027526 147.261128 5.10689844 147.208779 5.10689844 142.336202 19.2027526 139.217312 19.2027526 134.529334 5.10689844 134.476985 5.10689844 134.476985 19.2027526 130.388953 19.2027526"></polygon>
                    <path d="M162.795514,6.17224309 L160.542446,11.8825177 L165.076133,11.8825177 L162.795514,6.17224309 Z M161.225048,0.82572805 L164.602238,0.82572805 L172.671539,19.2027526 L168.061396,19.2027526 L166.462689,15.3092284 L159.259899,15.3092284 L157.71423,19.2027526 L153.208785,19.2027526 L161.225048,0.82572805 Z" id="Fill-13" fill="#1F1D19"></path>
                    <polygon id="Fill-14" fill="#1F1D19" points="175.73746 4.40811152 170.444715 4.40811152 170.444715 0.825796297 185.116172 0.825796297 185.116172 4.40811152 179.824115 4.40811152 179.824115 19.2028209 175.73746 19.2028209"></polygon>
                    <polygon id="Fill-15" fill="#1F1D19" points="187.131878 19.2025479 191.2206 19.2025479 191.2206 0.825523307 187.131878 0.825523307"></polygon>
                    <path d="M207.070456,5.60244408 C206.668197,5.11583887 206.175704,4.74320711 205.589535,4.48523128 C205.004054,4.22452554 204.327652,4.0962201 203.560328,4.0962201 C202.78956,4.0962201 202.079406,4.24363486 201.424356,4.53573448 C200.769307,4.83056401 200.202424,5.24141441 199.720952,5.76965064 C199.240858,6.29652192 198.865462,6.92371714 198.596141,7.65123629 C198.323375,8.37875544 198.189748,9.16633245 198.189748,10.0126024 C198.189748,10.8779816 198.323375,11.6696535 198.596141,12.3869355 C198.865462,13.1069474 199.236725,13.7293653 199.708554,14.2576016 C200.179694,14.7858378 200.734178,15.1966882 201.372008,15.4894703 C202.009148,15.7849823 202.695194,15.9330795 203.428767,15.9330795 C204.26566,15.9330795 205.009565,15.7583657 205.656348,15.413033 C206.301066,15.0670178 206.833509,14.5810951 207.253677,13.9586772 L210.65842,16.4763302 C209.873876,17.5655615 208.877181,18.3708829 207.671779,18.8916119 C206.467756,19.4102935 205.227226,19.6689518 203.953633,19.6689518 C202.501641,19.6689518 201.167434,19.4437348 199.945501,18.9953482 C198.721502,18.5455967 197.665571,17.8999746 196.774951,17.059847 C195.884332,16.2210843 195.188643,15.2041954 194.69064,14.0105453 C194.193326,12.8162128 193.94398,11.4847026 193.94398,10.0126024 C193.94398,8.54391457 194.193326,7.20967447 194.69064,6.01602439 C195.188643,4.82169182 195.884332,3.8061679 196.774951,2.96604025 C197.665571,2.12727755 198.721502,1.48302045 199.945501,1.03190397 C201.167434,0.58283493 202.501641,0.357617932 203.953633,0.357617932 C204.476433,0.357617932 205.022652,0.406756186 205.589535,0.500255364 C206.157107,0.593754542 206.716413,0.747311586 207.266765,0.954784214 C207.817116,1.16157437 208.346115,1.439342 208.851695,1.7853572 C209.357275,2.13068993 209.811195,2.5565548 210.213454,3.05680953 L207.070456,5.60244408 Z" id="Fill-16" fill="#1F1D19"></path>
                    <path d="M222.055937,5.31519004 C221.722558,4.90092726 221.272771,4.59244822 220.703821,4.39453025 C220.137627,4.19456485 219.601051,4.09628835 219.094783,4.09628835 C218.796532,4.09628835 218.492082,4.12972966 218.1773,4.20002466 C217.862518,4.26895471 217.566334,4.37815083 217.286681,4.52351817 C217.00565,4.66956798 216.779723,4.86612099 216.604768,5.10703493 C216.43119,5.35067878 216.342335,5.64346087 216.342335,5.99152351 C216.342335,6.54432886 216.552419,6.96746383 216.973276,7.26229336 C217.392067,7.55712288 217.917622,7.806909 218.556829,8.01369916 C219.194659,8.22185426 219.880704,8.42932689 220.613588,8.63748199 C221.348539,8.8456371 222.031829,9.14046662 222.669659,9.51992314 C223.308177,9.90210956 223.835798,10.4119189 224.255278,11.0520812 C224.674069,11.6936084 224.883464,12.5487505 224.883464,13.6216024 C224.883464,14.6432686 224.689911,15.533217 224.308316,16.2948599 C223.923276,17.0565029 223.40392,17.6871105 222.748871,18.1894126 C222.095199,18.6930797 221.333385,19.063664 220.469629,19.3066254 C219.604495,19.5482218 218.692523,19.66902 217.732335,19.66902 C216.528311,19.66902 215.40901,19.488164 214.379253,19.1237219 C213.348807,18.7599623 212.387241,18.1737157 211.496621,17.3581571 L214.405427,14.1921521 C214.824907,14.7449575 215.352528,15.1749172 215.988291,15.4765715 C216.627498,15.7795907 217.286681,15.9331478 217.967216,15.9331478 C218.299907,15.9331478 218.636041,15.8921992 218.976309,15.8150795 C219.316576,15.7365948 219.622404,15.6212564 219.893792,15.462922 C220.163113,15.3093649 220.380774,15.111447 220.548841,14.8657557 C220.714842,14.6248418 220.798187,14.3395669 220.798187,14.0106136 C220.798187,13.4571257 220.582592,13.0210237 220.154847,12.6988952 C219.725724,12.3808615 219.189148,12.1071887 218.544431,11.8826542 C217.899024,11.6581197 217.199203,11.4315377 216.447032,11.2070032 C215.698306,10.9817862 214.998484,10.6801319 214.352389,10.2979455 C213.705605,9.91848898 213.16903,9.41550435 212.741284,8.79376894 C212.31285,8.17135106 212.099322,7.34965025 212.099322,6.3266191 C212.099322,5.34044164 212.29563,4.47506239 212.688247,3.73252877 C213.081552,2.98931268 213.605729,2.36552984 214.261468,1.86186274 C214.916517,1.36229049 215.670754,0.984881395 216.528311,0.733730318 C217.382424,0.483944193 218.2634,0.357686179 219.172617,0.357686179 C220.220972,0.357686179 221.23282,0.50373599 222.210917,0.799247991 C223.189014,1.09407752 224.071368,1.58750748 224.857979,2.27817294 L222.055937,5.31519004 Z" id="Fill-17" fill="#1F1D19"></path>
                    <path d="M1.78798656,39.2089833 L4.54043444,39.2089833 C5.24438883,39.2089833 5.81333827,39.1264037 6.24521635,38.9585147 C6.67433923,38.7906256 7.0063412,38.5783757 7.23640066,38.3238122 C7.46783772,38.0733436 7.62281789,37.8037657 7.70202998,37.5225857 C7.78124207,37.2400407 7.82050372,36.9827474 7.82050372,36.7534355 C7.82050372,36.2845747 7.72889321,35.881914 7.54567221,35.543406 C7.36520641,35.2076279 7.12757014,34.9325902 6.83482981,34.7223877 C6.54346708,34.5142326 6.21422032,34.3599931 5.8436455,34.262399 C5.47307069,34.164805 5.09905187,34.1183966 4.72296664,34.1183966 L1.78798656,34.1183966 L1.78798656,39.2089833 Z M1.78798656,33.0346252 L4.28488935,33.0346252 C4.90343245,33.0346252 5.40832341,32.9616002 5.79749585,32.8094082 C6.18529068,32.658581 6.48974062,32.474995 6.70809047,32.2600152 C6.92712911,32.0416229 7.07246608,31.8109461 7.14616776,31.5632074 C7.21918064,31.3175162 7.25568708,31.0922992 7.25568708,30.8848265 C7.25568708,30.4418998 7.1785414,30.0699505 7.02769403,29.7744385 C6.87615786,29.479609 6.67296163,29.2448373 6.41741654,29.070806 C6.16187146,28.8960922 5.86362072,28.7746115 5.52335314,28.7015866 C5.18377436,28.6306091 4.82422036,28.593073 4.44882394,28.593073 L1.78798656,28.593073 L1.78798656,33.0346252 Z M0.584651606,27.5106664 L4.30279817,27.5106664 C4.78840272,27.5106664 5.28158407,27.5482026 5.77958703,27.6280522 C6.27690119,27.7058545 6.72324409,27.8696487 7.11792693,28.1146575 C7.51398737,28.3623962 7.83496853,28.704999 8.08431441,29.1438309 C8.33297149,29.5833453 8.45833323,30.1634497 8.45833323,30.8848265 C8.45833323,31.5352259 8.26340261,32.1016808 7.87423018,32.5814613 C7.48505774,33.0653366 6.9099091,33.3840527 6.14258504,33.5410222 L6.14258504,33.5785583 C6.56895271,33.6119996 6.95674755,33.7116411 7.30941354,33.8733878 C7.66276834,34.037182 7.96584068,34.2514794 8.22138577,34.5237872 C8.47693085,34.7954126 8.67323907,35.1182236 8.81375443,35.4901729 C8.95289219,35.866217 9.02383866,36.27502 9.02383866,36.7179468 C9.02383866,37.4522907 8.8798793,38.0521869 8.59540458,38.5155879 C8.30955226,38.9783065 7.95068706,39.343431 7.51880898,39.6089141 C7.08693089,39.8743971 6.62061277,40.0511584 6.11572181,40.1487524 C5.61151964,40.2463464 5.14037991,40.2927548 4.70436902,40.2927548 L0.584651606,40.2927548 L0.584651606,27.5106664 Z" id="Fill-18" fill="#1F1D19"></path>
                    <path d="M16.586389,28.8092813 L13.578396,35.8155773 L19.5000162,35.8155773 L16.586389,28.8092813 Z M16.0215723,27.5112124 L17.2600361,27.5112124 L22.6912302,40.2926183 L21.3418695,40.2926183 L19.9387823,36.8993488 L13.1045011,36.8993488 L11.6469986,40.2926183 L10.3899372,40.2926183 L16.0215723,27.5112124 Z" id="Fill-19" fill="#1F1D19"></path>
                    <path d="M25.7513654,33.1427293 L28.3019947,33.1427293 C28.9350026,33.1427293 29.4474704,33.0656096 29.8421532,32.9065927 C30.2375248,32.7537181 30.54473,32.5592125 30.7630798,32.3312656 C30.9814297,32.1019538 31.1308994,31.8535326 31.2101115,31.590097 C31.287946,31.3246139 31.3285853,31.0857474 31.3285853,30.8673552 C31.3285853,30.6503279 31.287946,30.4114614 31.2101115,30.1473432 C31.1308994,29.8825426 30.9814297,29.6341215 30.7630798,29.4048096 C30.54473,29.1768627 30.2375248,28.9823571 29.8421532,28.8294826 C29.4474704,28.6704657 28.9350026,28.593346 28.3019947,28.593346 L25.7513654,28.593346 L25.7513654,33.1427293 Z M24.5480305,27.5109394 L27.9383079,27.5109394 C28.1091305,27.5109394 28.3391899,27.5177642 28.6312414,27.5266364 C28.9219154,27.5402859 29.2380749,27.5737272 29.5783425,27.63515 C29.9186101,27.6952079 30.2657657,27.7921194 30.6177429,27.9265671 C30.9697201,28.0576025 31.284502,28.2480132 31.5648439,28.5039416 C31.8451858,28.7544102 32.0752453,29.0731264 32.2577775,29.4600902 C32.4409985,29.8450065 32.5305426,30.3138673 32.5305426,30.8673552 C32.5305426,31.4815833 32.4237785,31.9886628 32.2123167,32.3844988 C31.9987884,32.7830646 31.7322225,33.1051931 31.4098638,33.3508844 C31.0881938,33.5986231 30.7320838,33.7828916 30.3436002,33.8995949 C29.9558053,34.0210756 29.5845417,34.10775 29.2332533,34.1541584 L32.9872175,40.2930278 L31.619948,40.2930278 L27.9927231,34.2251359 L25.7513654,34.2251359 L25.7513654,40.2930278 L24.5480305,40.2930278 L24.5480305,27.5109394 Z" id="Fill-20" fill="#1F1D19"></path>
                    <path d="M45.981513,38.2905757 C45.3602147,39.1184187 44.6445507,39.71695 43.8303882,40.0779796 C43.0155368,40.4369619 42.1352495,40.617818 41.1881484,40.617818 C40.2024745,40.617818 39.3008343,40.4540238 38.4811614,40.1223406 C37.6607996,39.7899749 36.9596005,39.3279388 36.3761862,38.7328199 C35.7934607,38.1356537 35.3388522,37.4251964 35.0096055,36.6000832 C34.6817363,35.7776999 34.5171129,34.875467 34.5171129,33.8995267 C34.5171129,32.9269987 34.6817363,32.0281782 35.0096055,31.2098897 C35.3388522,30.3916013 35.7934607,29.683874 36.3761862,29.0908025 C36.9596005,28.4936362 37.6607996,28.0268228 38.4811614,27.6924097 C39.3008343,27.3539017 40.2024745,27.1860127 41.1881484,27.1860127 C42.0629254,27.1860127 42.8791543,27.3388873 43.6389015,27.6453189 C44.39796,27.9537979 45.0640303,28.4663372 45.6343574,29.1877141 L44.6507499,30.0019077 C44.2498678,29.3985991 43.7346448,28.9597672 43.1105913,28.684047 C42.4844714,28.4069618 41.8431979,28.2677368 41.1881484,28.2677368 C40.3498779,28.2677368 39.5935746,28.4131041 38.917861,28.7011089 C38.2449027,28.9904786 37.6704429,29.3890444 37.1965479,29.8913466 C36.7233418,30.3984261 36.3582774,30.9955923 36.1027323,31.6787506 C35.847876,32.3666861 35.7211367,33.1092198 35.7211367,33.8995267 C35.7211367,34.6952934 35.847876,35.4364621 36.1027323,36.1230327 C36.3582774,36.8082383 36.7233418,37.4054046 37.1965479,37.9118016 C37.6704429,38.4147862 38.2449027,38.814717 38.917861,39.1020393 C39.5935746,39.3900441 40.3498779,39.5354114 41.1881484,39.5354114 C41.5167064,39.5354114 41.8569739,39.4985577 42.2082623,39.4166606 C42.5602395,39.3409058 42.9039511,39.2194252 43.2373307,39.055631 C43.5707103,38.8945667 43.8910026,38.6891415 44.1933862,38.4414028 C44.4992137,38.1957115 44.7657796,37.8988346 44.9965279,37.549407 L45.981513,38.2905757 Z" id="Fill-21" fill="#1F1D19"></path>
                    <polygon id="Fill-22" fill="#1F1D19" points="48.1851244 27.5109394 56.0774036 27.5109394 56.0774036 28.593346 49.3884593 28.593346 49.3884593 33.1427293 55.657924 33.1427293 55.657924 34.2251359 49.3884593 34.2251359 49.3884593 39.2092563 56.3687664 39.2092563 56.3687664 40.2930278 48.1851244 40.2930278"></polygon>
                    <polygon id="Fill-23" fill="#1F1D19" points="58.9927529 27.5109394 60.1953991 27.5109394 60.1953991 39.2092563 66.2093186 39.2092563 66.2093186 40.2930278 58.9927529 40.2930278"></polygon>
                    <path d="M68.4691362,33.8997997 C68.4691362,34.6955664 68.5958755,35.4367351 68.8514206,36.1233057 C69.1069657,36.8085113 69.4713413,37.4056776 69.9452362,37.9120746 C70.4184424,38.4143768 70.9929022,38.8143075 71.6665494,39.1023123 C72.3415741,39.3903171 73.0985662,39.5356844 73.9361479,39.5356844 C74.7737296,39.5356844 75.5307217,39.3903171 76.20368,39.1023123 C76.8793936,38.8143075 77.4531646,38.4143768 77.9263708,37.9120746 C78.4016433,37.4056776 78.7646413,36.8085113 79.0201864,36.1233057 C79.2757315,35.4367351 79.4031596,34.6955664 79.4031596,33.8997997 C79.4031596,33.1094927 79.2757315,32.3669591 79.0201864,31.6790236 C78.7646413,30.9951829 78.4016433,30.3980166 77.9263708,29.8916196 C77.4531646,29.3893174 76.8793936,28.9907516 76.20368,28.7013819 C75.5307217,28.4133771 74.7737296,28.2680098 73.9361479,28.2680098 C73.0985662,28.2680098 72.3415741,28.4133771 71.6665494,28.7013819 C70.9929022,28.9907516 70.4184424,29.3893174 69.9452362,29.8916196 C69.4713413,30.3980166 69.1069657,30.9951829 68.8514206,31.6790236 C68.5958755,32.3669591 68.4691362,33.1094927 68.4691362,33.8997997 M67.2658012,33.8997997 C67.2658012,32.9265892 67.429047,32.0284512 67.7582938,31.2101627 C68.0861629,30.3911918 68.5414603,29.6834645 69.1241857,29.090393 C69.7082888,28.4932268 70.4087991,28.0270958 71.2298497,27.6920002 C72.0488338,27.3534923 72.9511628,27.1856032 73.9361479,27.1856032 C74.9190666,27.1856032 75.8213956,27.3534923 76.6417573,27.6920002 C77.462119,28.0270958 78.1633182,28.4932268 78.7460437,29.090393 C79.3301467,29.6834645 79.7861329,30.3911918 80.114002,31.2101627 C80.44256,32.0284512 80.6064946,32.9265892 80.6064946,33.8997997 C80.6064946,34.87574 80.44256,35.7779729 80.114002,36.6003562 C79.7861329,37.4254694 79.3301467,38.1359266 78.7460437,38.7330929 C78.1633182,39.3275293 77.462119,39.7902479 76.6417573,40.1219311 C75.8213956,40.4542968 74.9190666,40.618091 73.9361479,40.618091 C72.9511628,40.618091 72.0488338,40.4542968 71.2298497,40.1219311 C70.4087991,39.7902479 69.7082888,39.3275293 69.1241857,38.7330929 C68.5414603,38.1359266 68.0861629,37.4254694 67.7582938,36.6003562 C67.429047,35.7779729 67.2658012,34.87574 67.2658012,33.8997997" id="Fill-24" fill="#1F1D19"></path>
                    <polygon id="Fill-25" fill="#1F1D19" points="83.3025297 27.5109394 84.853709 27.5109394 92.7060378 38.7062716 92.7439219 38.7062716 92.7439219 27.5109394 93.9458792 27.5109394 93.9458792 40.2930278 92.3967663 40.2930278 84.5430599 29.0970131 84.5065534 29.0970131 84.5065534 40.2930278 83.3025297 40.2930278"></polygon>
                    <path d="M102.002437,28.8092813 L98.9944445,35.8155773 L104.917442,35.8155773 L102.002437,28.8092813 Z M101.437621,27.5112124 L102.676773,27.5112124 L108.107279,40.2926183 L106.759296,40.2926183 L105.356208,36.8993488 L98.5205495,36.8993488 L97.0637359,40.2926183 L95.8059857,40.2926183 L101.437621,27.5112124 Z" id="Fill-26" fill="#1F1D19"></path>
                </g>
            </g>
        </g>
    </g>
</svg>