<?xml version="1.0" encoding="UTF-8" standalone="no"?>
<svg width="103px" height="127px" viewBox="0 0 103 127" version="1.1" xmlns="http://www.w3.org/2000/svg" xmlns:xlink="http://www.w3.org/1999/xlink">
    <!-- Generator: Sketch 3.7.2 (28276) - http://www.bohemiancoding.com/sketch -->
    <title>logo-bibi-vertical</title>
    <desc>Created with Sketch.</desc>
    <defs>
        <polygon id="path-1" points="0 0.216301985 0 8.6011958 6.65528942 8.6011958 6.65528942 0.216301985 1.70602793e-20 0.216301985"></polygon>
    </defs>
    <g id="Page-1" stroke="none" stroke-width="1" fill="none" fill-rule="evenodd">
        <g id="PORTADA-Desktop" transform="translate(-461.000000, -1857.000000)">
            <g id="logo-bibi-vertical" transform="translate(461.000000, 1857.000000)">
                <g id="Group-4" transform="translate(1.525926, 0.000000)">
                    <polygon id="Fill-27" fill="#6EC2BC" points="92.6661605 74.2537186 49.4676605 98.6951593 6.49556909 73.8713759 6.7184993 24.6052124 49.9125723 0.160327183 92.8878258 24.9866157"></polygon>
                    <polygon id="Fill-28" fill="#56B156" points="100.039712 49.4778142 75.1227542 92.1204609 25.3701059 92.0712981 0.536312425 49.3813673 25.4551672 6.73652863 75.2065506 6.78569145"></polygon>
                    <path d="M34.3507785,66.450294 L18.2855734,66.4490415 L18.2558494,54.9890924 L28.1235945,54.9890924 C33.1339906,54.9890924 37.5078497,52.2472471 39.8019756,48.2005514 C42.5508158,49.9729183 44.3734679,53.0410545 44.3734679,56.5247262 C44.3734679,61.9971439 39.8772343,66.450294 34.3507785,66.450294 L34.3507785,66.450294 Z M36.696447,46.8744076 C34.9370375,49.7418217 31.7524557,51.6610508 28.1235945,51.6610508 L18.2852572,51.6610508 L18.27166,46.5972795 L34.3504622,46.5972795 C35.1587028,46.5972795 35.9435437,46.6949789 36.696447,46.8744076 L36.696447,46.8744076 Z M18.2321334,31.8111677 L28.1235945,31.8111677 C33.6509989,31.8111677 38.147865,36.2630653 38.147865,41.7348567 C38.147865,42.4275202 38.075136,43.1032743 37.9385319,43.7564823 C36.7954217,43.4411513 35.5934958,43.2689248 34.3504622,43.2689248 L18.2628061,43.2689248 L18.2321334,31.8111677 Z M41.0782115,45.0722925 C41.3586925,44.0057409 41.5088937,42.8875215 41.5088937,41.7348567 C41.5088937,34.4274443 35.5040075,28.4824998 28.1235945,28.4824998 L14.8622507,28.4824998 L14.9333987,69.7767699 L34.3504622,69.7786488 C41.7305591,69.7786488 47.7344967,63.8327649 47.7344967,56.5247262 C47.7344967,51.643515 45.0552233,47.3732381 41.0782115,45.0722925 L41.0782115,45.0722925 Z" id="Fill-29" fill="#FFFFFF"></path>
                    <path d="M75.6060859,66.450294 L59.5427781,66.4490415 L59.5121054,54.9890924 L69.3817478,54.9890924 C74.3918277,54.9890924 78.7650544,52.2478733 81.058864,48.2014908 C83.8073881,49.9735446 85.6290916,53.0416808 85.6290916,56.5247262 C85.6290916,61.9971439 81.1331741,66.450294 75.6060859,66.450294 L75.6060859,66.450294 Z M77.9536517,46.8747207 C76.1942422,49.7418217 73.0102928,51.6610508 69.3817478,51.6610508 L59.5421457,51.6610508 L59.5282323,46.5972795 L75.6060859,46.5972795 C76.4146427,46.5972795 77.2001159,46.6949789 77.9536517,46.8747207 L77.9536517,46.8747207 Z M59.487757,31.8111677 L69.3817478,31.8111677 C74.908836,31.8111677 79.4050697,36.2630653 79.4050697,41.7348567 C79.4050697,42.4275202 79.3323407,43.1035874 79.1954204,43.7567954 C78.0523102,43.4411513 76.8494357,43.2689248 75.6060859,43.2689248 L59.5193783,43.2689248 L59.487757,31.8111677 Z M82.3351,45.0732319 C82.6158972,44.0063672 82.7660984,42.8878346 82.7660984,41.7348567 C82.7660984,34.4274443 76.7618446,28.4824998 69.3817478,28.4824998 L56.1175581,28.4824998 L56.1906033,69.7767699 L75.6060859,69.7786488 C82.9858665,69.7786488 88.9901203,63.8327649 88.9901203,56.5247262 C88.9901203,51.6441413 86.3111631,47.3741775 82.3351,45.0732319 L82.3351,45.0732319 Z" id="Fill-30" fill="#FFFFFF"></path>
                    <polygon id="Fill-31" fill="#FFFFFF" points="53.3337764 69.6164427 49.9727476 69.6164427 49.9727476 29.2387306 53.3337764 29.2387306"></polygon>
                </g>
                <g id="Group-2" transform="translate(0.000000, 107.988024)">
                    <g id="Group-3" transform="translate(0.407256, 0.008465)">
                        <mask id="mask-2" fill="white">
                            <use xlink:href="#path-1"></use>
                        </mask>
                        <g id="Clip-2"></g>
                        <path d="M1.86765782,7.03731937 L3.5434705,7.03731937 C3.68666201,7.03731937 3.83268587,7.02206052 3.98059798,6.98998579 C4.12756596,6.95946809 4.26100156,6.90310377 4.38090478,6.82462968 C4.500808,6.74553279 4.59836704,6.6424577 4.67389663,6.51696144 C4.74974092,6.39021956 4.78750571,6.23700825 4.78750571,6.05483627 C4.78750571,5.85740543 4.73841148,5.69734321 4.63864949,5.57527241 C4.53857279,5.4525788 4.41269015,5.35978008 4.26100156,5.29718765 C4.10962768,5.23366101 3.94629496,5.19006429 3.77100338,5.16639751 C3.59508238,5.14273072 3.43143495,5.13058592 3.27974636,5.13058592 L1.86765782,5.13058592 L1.86765782,7.03731937 Z M1.86765782,3.56764371 L3.22026682,3.56764371 C3.36408773,3.56764371 3.505391,3.55176205 3.64480603,3.52062154 C3.78485047,3.4882354 3.9101037,3.43747637 4.02245395,3.3658532 C4.13354539,3.29547565 4.22323677,3.20049709 4.2912134,3.08216315 C4.35919002,2.9632064 4.39317834,2.82089427 4.39317834,2.65584956 C4.39317834,2.48208552 4.35541354,2.33728214 4.27988396,2.22330788 C4.20309555,2.10964501 4.1055365,2.02089456 3.98594799,1.9564337 C3.86698889,1.89352987 3.73072093,1.84837613 3.57903235,1.82003827 C3.42734376,1.79263462 3.27974636,1.77893279 3.13655486,1.77893279 L1.86765782,1.77893279 L1.86765782,3.56764371 Z M-0.000125882642,0.216301985 L3.15984315,0.216301985 C3.52710576,0.216301985 3.89625661,0.241525798 4.26729569,0.29290764 C4.63864949,0.344289482 4.97192378,0.446430356 5.26711858,0.600264477 C5.56168396,0.754721408 5.8018051,0.969902335 5.98496435,1.24611866 C6.16812359,1.52233499 6.26033263,1.88979301 6.26033263,2.34818132 C6.26033263,2.82089427 6.12626762,3.21451032 5.85971112,3.52653823 C5.59221051,3.83794334 5.23879499,4.06059798 4.80009398,4.19543639 L4.80009398,4.21910318 C5.07955344,4.25802882 5.33289226,4.33525729 5.56011043,4.44923155 C5.78764331,4.56414004 5.98339082,4.71018903 6.14672354,4.88893556 C6.30942686,5.06612506 6.43562421,5.27258665 6.52405677,5.51018874 C6.6112305,5.74716802 6.65528942,5.99971756 6.65528942,6.26752595 C6.65528942,6.7097212 6.55961861,7.07873625 6.36796229,7.37550531 C6.17662067,7.67102875 5.92894657,7.90987647 5.62588411,8.09173705 C5.32282165,8.27390903 4.98136498,8.40407637 4.60277294,8.48223905 C4.22323677,8.56164735 3.84653296,8.6011958 3.47171739,8.6011958 L-0.000125882642,8.6011958 L-0.000125882642,0.216301985 Z" id="Fill-1" fill="#55B157" mask="url(#mask-2)"></path>
                    </g>
                    <polygon id="Fill-4" fill="#55B157" points="8.13896766 8.60978531 10.0064367 8.60978531 10.0064367 0.224580096 8.13896766 0.224580096"></polygon>
                    <path d="M13.1909843,4.41649761 C13.1909843,4.81167069 13.2523521,5.1725892 13.3766612,5.49987597 C13.4993967,5.82840835 13.6778354,6.11240981 13.90883,6.35343736 C14.1401394,6.59446491 14.4177106,6.78193078 14.7405996,6.91552357 C15.0638033,7.05036198 15.4254012,7.11793688 15.8241344,7.11793688 C16.2231824,7.11793688 16.5838362,7.05036198 16.9073546,6.91552357 C17.2305583,6.78193078 17.5078148,6.59446491 17.7388094,6.35343736 C17.9707482,6.11240981 18.1482427,5.82840835 18.2719224,5.49987597 C18.3952874,5.1725892 18.4572846,4.81167069 18.4572846,4.41649761 C18.4572846,4.03035528 18.3952874,3.6709938 18.2719224,3.33903596 C18.1482427,3.00707812 17.9707482,2.72089683 17.7388094,2.48049209 C17.5078148,2.23946454 17.2305583,2.05199866 16.9073546,1.91747166 C16.5838362,1.78419027 16.2231824,1.71692677 15.8241344,1.71692677 C15.4254012,1.71692677 15.0638033,1.78419027 14.7405996,1.91747166 C14.4177106,2.05199866 14.1401394,2.23946454 13.90883,2.48049209 C13.6778354,2.72089683 13.4993967,3.00707812 13.3766612,3.33903596 C13.2523521,3.6709938 13.1909843,4.03035528 13.1909843,4.41649761 M11.2517622,4.41649761 C11.2517622,3.74635383 11.3653712,3.13786826 11.5929041,2.59322073 C11.820437,2.0482618 12.137976,1.5845796 12.5442622,1.20123992 C12.9511778,0.818523049 13.4336231,0.524556632 13.9931714,0.318717858 C14.5511462,0.113813301 15.161677,0.0113610215 15.8241344,0.0113610215 C16.4862771,0.0113610215 17.0964933,0.113813301 17.6560416,0.318717858 C18.2140164,0.524556632 18.6964616,0.818523049 19.1040067,1.20123992 C19.5109223,1.5845796 19.8281466,2.0482618 20.0550501,2.59322073 C20.2822682,3.13786826 20.396192,3.74635383 20.396192,4.41649761 C20.396192,5.08819842 20.2822682,5.69574978 20.0550501,6.24070871 C19.8281466,6.78535623 19.5109223,7.24934984 19.1040067,7.63206671 C18.6964616,8.01540639 18.2140164,8.30999562 17.6560416,8.51521158 C17.0964933,8.71980473 16.4862771,8.82256842 15.8241344,8.82256842 C15.161677,8.82256842 14.5511462,8.71980473 13.9931714,8.51521158 C13.4336231,8.30999562 12.9511778,8.01540639 12.5442622,7.63206671 C12.137976,7.24934984 11.820437,6.78535623 11.5929041,6.24070871 C11.3653712,5.69574978 11.2517622,5.08819842 11.2517622,4.41649761" id="Fill-6" fill="#55B157"></path>
                    <polygon id="Fill-7" fill="#1F1D19" points="21.6405105 8.60978531 23.5082942 8.60978531 23.5082942 0.224580096 21.6405105 0.224580096"></polygon>
                    <polygon id="Fill-8" fill="#1F1D19" points="25.206986 0.224673517 27.7447801 0.224673517 31.3475413 6.051063 31.371459 6.051063 31.371459 0.224673517 33.2386133 0.224673517 33.2386133 8.60987873 30.7968048 8.60987873 27.0986874 2.64055431 27.0747697 2.64055431 27.0747697 8.60987873 25.206986 8.60987873"></polygon>
                    <polygon id="Fill-9" fill="#1F1D19" points="35.0335739 0.224673517 40.7190634 0.224673517 40.7190634 1.92961646 36.9016723 1.92961646 36.9016723 3.63518221 40.432051 3.63518221 40.432051 5.34105936 36.9016723 5.34105936 36.9016723 8.60987873 35.0335739 8.60987873"></polygon>
                    <path d="M43.5441846,4.41649761 C43.5441846,4.81167069 43.604923,5.1725892 43.7298615,5.49987597 C43.8525971,5.82840835 44.0304064,6.11240981 44.2617157,6.35343736 C44.4933398,6.59446491 44.7702816,6.78193078 45.0938,6.91552357 C45.4170037,7.05036198 45.7786016,7.11793688 46.1773348,7.11793688 C46.5763828,7.11793688 46.9367219,7.05036198 47.2599255,6.91552357 C47.5831292,6.78193078 47.8610152,6.59446491 48.0920098,6.35343736 C48.3233192,6.11240981 48.5014431,5.82840835 48.6251228,5.49987597 C48.7484878,5.1725892 48.810485,4.81167069 48.810485,4.41649761 C48.810485,4.03035528 48.7484878,3.6709938 48.6251228,3.33903596 C48.5014431,3.00707812 48.3233192,2.72089683 48.0920098,2.48049209 C47.8610152,2.23946454 47.5831292,2.05199866 47.2599255,1.91747166 C46.9367219,1.78419027 46.5763828,1.71692677 46.1773348,1.71692677 C45.7786016,1.71692677 45.4170037,1.78419027 45.0938,1.91747166 C44.7702816,2.05199866 44.4933398,2.23946454 44.2617157,2.48049209 C44.0304064,2.72089683 43.8525971,3.00707812 43.7298615,3.33903596 C43.604923,3.6709938 43.5441846,4.03035528 43.5441846,4.41649761 M41.6049625,4.41649761 C41.6049625,3.74635383 41.7182569,3.13786826 41.9457898,2.59322073 C42.173008,2.0482618 42.4905469,1.5845796 42.8974626,1.20123992 C43.3043782,0.818523049 43.7868234,0.524556632 44.3463718,0.318717858 C44.9043466,0.113813301 45.5148774,0.0113610215 46.1773348,0.0113610215 C46.8394775,0.0113610215 47.4493789,0.113813301 48.0086126,0.318717858 C48.5669021,0.524556632 49.049662,0.818523049 49.4572071,1.20123992 C49.863808,1.5845796 50.1807176,2.0482618 50.4082504,2.59322073 C50.6354686,3.13786826 50.7493924,3.74635383 50.7493924,4.41649761 C50.7493924,5.08819842 50.6354686,5.69574978 50.4082504,6.24070871 C50.1807176,6.78535623 49.863808,7.24934984 49.4572071,7.63206671 C49.049662,8.01540639 48.5669021,8.30999562 48.0086126,8.51521158 C47.4493789,8.71980473 46.8394775,8.82256842 46.1773348,8.82256842 C45.5148774,8.82256842 44.9043466,8.71980473 44.3463718,8.51521158 C43.7868234,8.30999562 43.3043782,8.01540639 42.8974626,7.63206671 C42.4905469,7.24934984 42.173008,6.78535623 41.9457898,6.24070871 C41.7182569,5.69574978 41.6049625,5.08819842 41.6049625,4.41649761" id="Fill-10" fill="#1F1D19"></path>
                    <path d="M53.8849402,3.69422462 L54.9864133,3.69422462 C55.1541519,3.69422462 55.3313318,3.68799651 55.5188969,3.67647453 C55.7061473,3.66495254 55.8754595,3.62914095 56.0271481,3.57028538 C56.1788366,3.51049561 56.3047193,3.41800829 56.4044813,3.29157782 C56.5042433,3.16545875 56.5536522,2.98764644 56.5536522,2.75907509 C56.5536522,2.5457626 56.5108521,2.37573541 56.4224196,2.24930494 C56.3343017,2.12318587 56.2232103,2.02633888 56.087257,1.95938679 C55.9513038,1.8930575 55.7958387,1.84665814 55.6202324,1.82299135 C55.4449408,1.79932456 55.273111,1.78749117 55.1063165,1.78749117 L53.8849402,1.78749117 L53.8849402,3.69422462 Z M52.0174712,0.224548955 L55.2970287,0.224548955 C55.7275474,0.224548955 56.1369807,0.265965834 56.5246992,0.348799591 C56.9108442,0.431010539 57.2507273,0.569897215 57.5415162,0.763279784 C57.8329346,0.956039543 58.0639292,1.21730842 58.235759,1.54490659 C58.4075888,1.87281617 58.493189,2.28169107 58.493189,2.77059708 C58.493189,3.36288959 58.3380387,3.86549742 58.0264791,4.28060043 C57.715549,4.69508062 57.260798,4.95852934 56.6619113,5.06845534 L58.8167074,8.60975417 L56.5778846,8.60975417 L54.8070305,5.25810104 L53.8849402,5.25810104 L53.8849402,8.60975417 L52.0174712,8.60975417 L52.0174712,0.224548955 Z" id="Fill-11" fill="#1F1D19"></path>
                    <polygon id="Fill-12" fill="#1F1D19" points="59.7731008 0.224673517 62.5985367 0.224673517 64.5494029 5.69574978 64.5733206 5.69574978 66.535831 0.224673517 69.3486787 0.224673517 69.3486787 8.60987873 67.4818391 8.60987873 67.4818391 2.17811773 67.4579214 2.17811773 65.2316869 8.60987873 63.8066954 8.60987873 61.6648022 2.17811773 61.6408845 2.17811773 61.6408845 8.60987873 59.7731008 8.60987873"></polygon>
                    <path d="M74.5793542,2.6642211 L73.5499489,5.2697476 L75.6213478,5.2697476 L74.5793542,2.6642211 Z M73.8618232,0.224673517 L75.4048297,0.224673517 L79.0916176,8.60987873 L76.9852862,8.60987873 L76.2548522,6.83331262 L72.9639652,6.83331262 L72.2577636,8.60987873 L70.1992677,8.60987873 L73.8618232,0.224673517 Z" id="Fill-13" fill="#1F1D19"></path>
                    <polygon id="Fill-14" fill="#1F1D19" points="80.4924081 1.85927004 78.0742026 1.85927004 78.0742026 0.224704658 84.7774533 0.224704658 84.7774533 1.85927004 82.3595624 1.85927004 82.3595624 8.60990987 80.4924081 8.60990987"></polygon>
                    <polygon id="Fill-15" fill="#1F1D19" points="85.6984107 8.60978531 87.5665091 8.60978531 87.5665091 0.224580096 85.6984107 0.224580096"></polygon>
                    <path d="M94.8081599,2.40422898 C94.6243712,2.18219714 94.399356,2.01216995 94.1315407,1.89445882 C93.8640401,1.77550207 93.5549982,1.71695791 93.204415,1.71695791 C92.8522583,1.71695791 92.5277958,1.78422142 92.2285098,1.9175028 C91.9292238,2.0520298 91.6702203,2.23949568 91.4502404,2.48052323 C91.2308899,2.72092797 91.0593748,3.00710926 90.9363245,3.3390671 C90.8117007,3.67102494 90.7506476,4.03038643 90.7506476,4.41652875 C90.7506476,4.81139042 90.8117007,5.17262034 90.9363245,5.49990711 C91.0593748,5.82843949 91.2290016,6.11244095 91.4445757,6.3534685 C91.659835,6.59449605 91.9131738,6.78196192 92.2045921,6.91555471 C92.4956957,7.05039312 92.8091435,7.11796802 93.144306,7.11796802 C93.5266746,7.11796802 93.8665577,7.03824832 94.1620672,6.88067734 C94.4566326,6.72279495 94.6999008,6.50107451 94.8918718,6.21707306 L96.4474666,7.36584649 C96.0890158,7.86284903 95.6336353,8.23030705 95.0828987,8.46790915 C94.5327916,8.70457703 93.966005,8.82259956 93.3841125,8.82259956 C92.720711,8.82259956 92.1111243,8.71983588 91.5528347,8.51524272 C90.9936011,8.31002676 90.5111559,8.01543753 90.1042402,7.63209785 C89.6973246,7.24938098 89.3794709,6.78538737 89.151938,6.24073985 C88.9247199,5.69578092 88.8107961,5.08822956 88.8107961,4.41652875 C88.8107961,3.74638497 88.9247199,3.13758799 89.151938,2.59294047 C89.3794709,2.04798154 89.6973246,1.58461074 90.1042402,1.20127106 C90.5111559,0.81855419 90.9936011,0.524587772 91.5528347,0.318748999 C92.1111243,0.113844441 92.720711,0.0110807569 93.3841125,0.0110807569 C93.6229748,0.0110807569 93.8725371,0.0335019244 94.1315407,0.0761644235 C94.3908589,0.118826923 94.6464007,0.188893071 94.8978513,0.283560222 C95.1493018,0.377915969 95.3909965,0.504657846 95.6219912,0.662540233 C95.8529858,0.820111215 96.0603775,1.014428 96.2441661,1.24268794 L94.8081599,2.40422898 Z" id="Fill-16" fill="#1F1D19"></path>
                    <path d="M101.654885,2.27315857 C101.502567,2.08413567 101.297064,1.94338056 101.037116,1.85307308 C100.778427,1.76183139 100.533271,1.71698905 100.301962,1.71698905 C100.165694,1.71698905 100.026593,1.7322479 99.8827724,1.76432263 C99.7389515,1.79577454 99.6036277,1.84559936 99.4758568,1.91192865 C99.3474565,1.97856934 99.2442327,2.06825401 99.1642972,2.17818001 C99.0849912,2.28935163 99.044394,2.42294442 99.044394,2.58176103 C99.044394,2.83399916 99.1403795,3.02707032 99.3326653,3.16159733 C99.5240069,3.29612433 99.764128,3.4100986 100.056176,3.50445435 C100.347594,3.5994329 100.661042,3.69410005 100.99589,3.78907861 C101.331682,3.88405717 101.643871,4.01858417 101.935289,4.19172541 C102.227022,4.36611227 102.468087,4.59873188 102.659744,4.89082987 C102.851085,5.18355066 102.946756,5.57374126 102.946756,6.06327008 C102.946756,6.52944352 102.858323,6.93551577 102.683976,7.28304387 C102.508055,7.63057196 102.270766,7.91831028 101.97148,8.14750444 C101.672824,8.3773214 101.324758,8.54641437 100.930116,8.65727459 C100.534845,8.767512 100.118173,8.8226307 99.679472,8.8226307 C99.1293648,8.8226307 98.6179666,8.74010835 98.1474802,8.57381802 C97.6766791,8.4078391 97.2373487,8.14034212 96.8304331,7.76821302 L98.159439,6.32360475 C98.3510954,6.57584288 98.5921606,6.77202809 98.8826348,6.90966915 C99.1746826,7.04793302 99.4758568,7.11799916 99.7867869,7.11799916 C99.9387902,7.11799916 100.092367,7.09931486 100.247832,7.06412608 C100.403297,7.02831449 100.543027,6.97568703 100.667021,6.90344105 C100.790072,6.8333749 100.889519,6.74306742 100.966307,6.63096158 C101.042152,6.52103558 101.080231,6.39086825 101.080231,6.24077099 C101.080231,5.98822145 100.981728,5.78923359 100.786295,5.64225038 C100.590233,5.4971356 100.345076,5.37226216 100.050511,5.26980988 C99.755631,5.1673576 99.435889,5.0639711 99.0922294,4.96151882 C98.7501433,4.85875514 98.4304014,4.72111408 98.1352066,4.54672723 C97.8396971,4.37358599 97.5945407,4.14408043 97.3991079,3.86039038 C97.2033604,3.57638892 97.1058013,3.20145718 97.1058013,2.73466093 C97.1058013,2.28468056 97.1954927,1.88981889 97.3748755,1.55101013 C97.554573,1.21188998 97.7940647,0.927265711 98.0936654,0.697448745 C98.3929513,0.469500209 98.7375551,0.297293187 99.1293648,0.182696109 C99.519601,0.0687218416 99.9221107,0.0111118975 100.337523,0.0111118975 C100.816507,0.0111118975 101.278811,0.0777525896 101.725694,0.212590999 C102.172578,0.347118004 102.575717,0.572263894 102.935112,0.887405858 L101.654885,2.27315857 Z" id="Fill-17" fill="#1F1D19"></path>
                </g>
                <g id="Group" transform="translate(26.703704, 120.155689)" fill="#1F1D19">
                    <path d="M1.01652667,5.57080554 L2.27409427,5.57080554 C2.59572442,5.57080554 2.85567208,5.53312552 3.05299312,5.45651987 C3.24905534,5.37991421 3.40074392,5.28306723 3.50585593,5.16691312 C3.61159735,5.05262745 3.68240633,4.92962243 3.71859759,4.80132353 C3.75478885,4.67240182 3.77272713,4.55500209 3.77272713,4.45036998 C3.77272713,4.23643467 3.73087115,4.05270566 3.64715919,3.89824873 C3.56470606,3.74503742 3.45613228,3.61954116 3.32238198,3.52362839 C3.18926108,3.42864984 3.03883132,3.35827228 2.86951917,3.31374135 C2.70020702,3.26921042 2.52932133,3.24803488 2.35749152,3.24803488 L1.01652667,3.24803488 L1.01652667,5.57080554 Z M1.01652667,2.75352357 L2.15733812,2.75352357 C2.43994465,2.75352357 2.67062459,2.72020323 2.84843383,2.65075989 C3.02561365,2.58193936 3.16471397,2.49817139 3.26447596,2.40007878 C3.36455266,2.30042915 3.43095575,2.19517422 3.46462936,2.08213417 C3.49798826,1.97002833 3.51466771,1.86726465 3.51466771,1.7725975 C3.51466771,1.57049558 3.47942057,1.4007798 3.41049983,1.26594139 C3.34126437,1.13141439 3.24842592,1.02429103 3.13166977,0.944882732 C3.01491362,0.865163026 2.87864566,0.809732917 2.7231806,0.776412571 C2.56803024,0.744026441 2.40375339,0.72689916 2.23223829,0.72689916 L1.01652667,0.72689916 L1.01652667,2.75352357 Z M0.466734233,0.233010666 L2.16552049,0.233010666 C2.38738865,0.233010666 2.61271858,0.250137947 2.84025146,0.286572344 C3.06746962,0.322072526 3.27139951,0.39680975 3.45172639,0.508604183 C3.63268269,0.621644235 3.77933597,0.777969597 3.89325976,0.978203078 C4.00686884,1.17874796 4.06414545,1.4434423 4.06414545,1.7725975 C4.06414545,2.06936656 3.97508348,2.3278328 3.79727424,2.54675058 C3.61946501,2.7675368 3.356685,2.91296299 3.00610184,2.98458616 L3.00610184,3.00171344 C3.20090523,3.01697229 3.37808504,3.06243743 3.53921483,3.13624044 C3.70065932,3.21097767 3.83913022,3.30875887 3.95588637,3.43300951 C4.07264252,3.55694874 4.16233391,3.70424335 4.22653405,3.87395913 C4.29010479,4.04554335 4.32251957,4.232075 4.32251957,4.43417691 C4.32251957,4.76924881 4.25674589,5.04297389 4.12677206,5.25441796 C3.99616882,5.46555062 3.83220668,5.63215235 3.63488564,5.75328893 C3.43756459,5.87442552 3.22450822,5.95507944 2.99382828,5.99961037 C2.76346304,6.0441413 2.54820372,6.06531685 2.34899444,6.06531685 L0.466734233,6.06531685 L0.466734233,0.233010666 Z" id="Fill-18"></path>
                    <path d="M7.77777781,0.825552297 L6.40345406,4.02243709 L9.10898675,4.02243709 L7.77777781,0.825552297 Z M7.51971839,0.23325979 L8.08556087,0.23325979 L10.5670225,6.06525456 L9.95051222,6.06525456 L9.30945486,4.51694839 L6.18693591,4.51694839 L5.52101674,6.06525456 L4.94667718,6.06525456 L7.51971839,0.23325979 Z" id="Fill-19"></path>
                    <path d="M11.9651695,2.80285014 L13.1305281,2.80285014 C13.4197434,2.80285014 13.6538851,2.76766136 13.834212,2.69510397 C14.0148536,2.62534923 14.1552128,2.53659878 14.2549748,2.43258947 C14.3547368,2.32795736 14.4230281,2.2146059 14.4592193,2.09440353 C14.4947812,1.97326695 14.5133489,1.86427516 14.5133489,1.76462553 C14.5133489,1.6655987 14.4947812,1.55660692 14.4592193,1.43609314 C14.4230281,1.31526796 14.3547368,1.2019165 14.2549748,1.09728439 C14.1552128,0.993275085 14.0148536,0.904524631 13.834212,0.834769888 C13.6538851,0.762212499 13.4197434,0.727023722 13.1305281,0.727023722 L11.9651695,0.727023722 L11.9651695,2.80285014 Z M11.4153771,0.233135228 L12.964363,0.233135228 C13.0424102,0.233135228 13.1475222,0.236249279 13.2809578,0.240297546 C13.413764,0.246525648 13.5582143,0.261784498 13.7136794,0.289810957 C13.8691445,0.317214606 14.0277566,0.361434131 14.1885717,0.422780936 C14.3493867,0.482570716 14.4932077,0.56945274 14.6212932,0.686229653 C14.7493788,0.800515326 14.8544908,0.94594151 14.9378881,1.1225082 C15.0216001,1.29814068 15.0625119,1.51207599 15.0625119,1.76462553 C15.0625119,2.04489012 15.0137324,2.27626411 14.9171175,2.45687907 C14.8195584,2.63873965 14.697767,2.78572286 14.5504843,2.8978287 C14.4035163,3.01086875 14.240813,3.09494813 14.0633184,3.1481984 C13.8861386,3.20362851 13.7165118,3.24317696 13.5560114,3.2643525 L15.2711624,6.06544141 L14.6464698,6.06544141 L12.9892248,3.29673863 L11.9651695,3.29673863 L11.9651695,6.06544141 L11.4153771,6.06544141 L11.4153771,0.233135228 Z" id="Fill-20"></path>
                    <path d="M21.208134,5.15174769 C20.9242686,5.52948208 20.5972885,5.80258436 20.2253053,5.96731766 C19.8530073,6.13111674 19.4508123,6.2136391 19.0180907,6.2136391 C18.5677456,6.2136391 18.1557946,6.13890187 17.7812937,5.98755899 C17.4064782,5.83590471 17.0861069,5.62508345 16.8195504,5.3535382 C16.5533086,5.08105874 16.3456022,4.75688602 16.1951725,4.38039725 C16.0453721,4.0051541 15.9701572,3.59347656 15.9701572,3.14816726 C15.9701572,2.70441499 16.0453721,2.29429447 16.1951725,1.92091975 C16.3456022,1.54754503 16.5533086,1.22461794 16.8195504,0.954006902 C17.0861069,0.681527436 17.4064782,0.468526346 17.7812937,0.315937845 C18.1557946,0.161480914 18.5677456,0.0848752585 19.0180907,0.0848752585 C19.4177681,0.0848752585 19.7906954,0.154630002 20.1378168,0.294450893 C20.4846235,0.435206 20.7889448,0.669071232 21.0495219,0.998226426 L20.6001208,1.36973271 C20.4169616,1.0944506 20.181561,0.894217122 19.8964368,0.76840946 C19.6103685,0.641978988 19.3173767,0.578452347 19.0180907,0.578452347 C18.6350928,0.578452347 18.2895449,0.644781634 17.9808177,0.776194588 C17.6733494,0.908230352 17.4108841,1.09009093 17.1943659,1.31928509 C16.9781625,1.55065908 16.811368,1.82313855 16.6946118,2.13485505 C16.5781704,2.4487514 16.5202644,2.78756015 16.5202644,3.14816726 C16.5202644,3.51126561 16.5781704,3.84945155 16.6946118,4.16272509 C16.811368,4.47537581 16.9781625,4.74785528 17.1943659,4.97891786 C17.4108841,5.20842342 17.6733494,5.39090681 17.9808177,5.52200836 C18.2895449,5.65342132 18.6350928,5.7197506 19.0180907,5.7197506 C19.1682058,5.7197506 19.3236708,5.70293473 19.4841712,5.66556611 C19.6449863,5.63100015 19.8020249,5.57557004 19.9543429,5.50083281 C20.1066609,5.42734121 20.2529994,5.33360827 20.3911556,5.22056822 C20.5308854,5.10846238 20.6526768,4.97300116 20.7581035,4.81356175 L21.208134,5.15174769 Z" id="Fill-21"></path>
                    <polygon id="Fill-22" points="22.2149434 0.233135228 25.8208516 0.233135228 25.8208516 0.727023722 22.7647358 0.727023722 22.7647358 2.80285014 25.6291953 2.80285014 25.6291953 3.29673863 22.7647358 3.29673863 22.7647358 5.5709301 25.9539725 5.5709301 25.9539725 6.06544141 22.2149434 6.06544141"></polygon>
                    <polygon id="Fill-23" points="27.1528474 0.233135228 27.7023251 0.233135228 27.7023251 5.5709301 30.4500285 5.5709301 30.4500285 6.06544141 27.1528474 6.06544141"></polygon>
                    <path d="M31.4825179,3.14829182 C31.4825179,3.51139017 31.5404239,3.84957611 31.6571801,4.16284965 C31.7739362,4.47550037 31.940416,4.74797984 32.1569342,4.97904242 C32.3731376,5.20823658 32.6356029,5.39071997 32.943386,5.52213292 C33.2517984,5.65354588 33.597661,5.71987516 33.9803442,5.71987516 C34.3630275,5.71987516 34.70889,5.65354588 35.0163584,5.52213292 C35.3250856,5.39071997 35.5872362,5.20823658 35.8034396,4.97904242 C36.0205872,4.74797984 36.1864375,4.47550037 36.3031937,4.16284965 C36.4199498,3.84957611 36.4781706,3.51139017 36.4781706,3.14829182 C36.4781706,2.78768471 36.4199498,2.44887596 36.3031937,2.13497962 C36.1864375,1.8229517 36.0205872,1.55047224 35.8034396,1.31940965 C35.5872362,1.09021549 35.3250856,0.908354914 35.0163584,0.77631915 C34.70889,0.644906196 34.3630275,0.578576909 33.9803442,0.578576909 C33.597661,0.578576909 33.2517984,0.644906196 32.943386,0.77631915 C32.6356029,0.908354914 32.3731376,1.09021549 32.1569342,1.31940965 C31.940416,1.55047224 31.7739362,1.8229517 31.6571801,2.13497962 C31.5404239,2.44887596 31.4825179,2.78768471 31.4825179,3.14829182 M30.9327255,3.14829182 C30.9327255,2.70422814 31.0073109,2.29441903 31.1577407,1.92104431 C31.307541,1.54735819 31.5155621,1.22443109 31.7818039,0.953820059 C32.0486751,0.681340593 32.3687317,0.468650908 32.743862,0.315751002 C33.1180481,0.161294071 33.5303138,0.0846884154 33.9803442,0.0846884154 C34.4294306,0.0846884154 34.8416962,0.161294071 35.2165118,0.315751002 C35.5913273,0.468650908 35.9116987,0.681340593 36.1779405,0.953820059 C36.4448117,1.22443109 36.6531474,1.54735819 36.8029478,1.92104431 C36.9530628,2.29441903 37.027963,2.70422814 37.027963,3.14829182 C37.027963,3.59360112 36.9530628,4.00527867 36.8029478,4.38052182 C36.6531474,4.75701059 36.4448117,5.0811833 36.1779405,5.35366276 C35.9116987,5.62489661 35.5913273,5.83602927 35.2165118,5.98737215 C34.8416962,6.13902643 34.4294306,6.21376366 33.9803442,6.21376366 C33.5303138,6.21376366 33.1180481,6.13902643 32.743862,5.98737215 C32.3687317,5.83602927 32.0486751,5.62489661 31.7818039,5.35366276 C31.5155621,5.0811833 31.307541,4.75701059 31.1577407,4.38052182 C31.0073109,4.00527867 30.9327255,3.59360112 30.9327255,3.14829182" id="Fill-24"></path>
                    <polygon id="Fill-25" points="38.2597561 0.233135228 38.9684754 0.233135228 42.5561307 5.34142454 42.5734396 5.34142454 42.5734396 0.233135228 43.1226026 0.233135228 43.1226026 6.06544141 42.4148274 6.06544141 38.8265427 0.956840688 38.8098633 0.956840688 38.8098633 6.06544141 38.2597561 6.06544141"></polygon>
                    <path d="M46.8035684,0.825552297 L45.4292447,4.02243709 L48.1354068,4.02243709 L46.8035684,0.825552297 Z M46.545509,0.23325979 L47.1116662,0.23325979 L49.5928131,6.06525456 L48.9769322,6.06525456 L48.3358749,4.51694839 L45.2127265,4.51694839 L44.5471221,6.06525456 L43.9724678,6.06525456 L46.545509,0.23325979 Z" id="Fill-26"></path>
                </g>
            </g>
        </g>
    </g>
</svg>